<?xml version="1.0" standalone="no"?>
<!DOCTYPE svg PUBLIC "-//W3C//DTD SVG 20010904//EN"
 "http://www.w3.org/TR/2001/REC-SVG-20010904/DTD/svg10.dtd">
<svg version="1.0" xmlns="http://www.w3.org/2000/svg"
 width="500.000000pt" height="500.000000pt" viewBox="0 0 500.000000 500.000000"
 preserveAspectRatio="xMidYMid meet">

<g transform="translate(0.000000,500.000000) scale(0.100000,-0.100000)"
fill="#000000" stroke="none">
<path d="M1811 4649 c-63 -16 -116 -31 -117 -32 -2 -2 12 -56 81 -292 16 -55
27 -79 36 -77 103 26 201 59 231 79 78 52 106 146 69 229 -36 80 -64 101 -156
118 -18 3 -77 -7 -144 -25z m177 -65 c49 -34 68 -126 36 -172 -21 -30 -86 -62
-131 -65 l-36 -2 -18 70 c-10 39 -24 89 -33 113 -12 33 -13 44 -3 47 7 2 26 8
42 13 46 16 118 14 143 -4z"/>
<path d="M2512 4658 c3 -7 24 -74 48 -148 25 -74 49 -138 55 -142 5 -4 26 -8
45 -8 35 0 35 0 108 140 39 77 72 142 72 145 0 3 -18 5 -40 5 l-40 0 -41 -82
c-23 -46 -46 -89 -52 -96 -7 -9 -19 16 -44 93 l-34 105 -41 0 c-28 0 -39 -4
-36 -12z"/>
<path d="M2250 4642 c-107 -53 -107 -211 0 -264 61 -31 173 -18 207 24 11 12
8 19 -12 38 -24 22 -25 23 -45 5 -27 -24 -92 -25 -119 -1 -12 11 -21 22 -21
26 0 8 40 15 153 26 64 6 67 7 67 33 0 40 -33 92 -71 113 -43 23 -114 23 -159
0z m130 -62 c30 -30 25 -37 -32 -44 -105 -12 -113 -8 -77 38 26 33 79 36 109
6z"/>
<path d="M3290 4628 c0 -7 -32 -91 -70 -186 -39 -95 -70 -177 -70 -182 0 -9
69 -35 74 -28 5 5 133 329 141 356 5 19 1 25 -29 37 -43 18 -46 18 -46 3z"/>
<path d="M2933 4599 c-69 -20 -111 -126 -80 -201 21 -51 84 -90 151 -96 30 -2
63 1 75 7 20 11 20 13 6 41 -13 25 -19 28 -38 21 -32 -13 -72 -3 -102 25 -23
22 -34 54 -17 54 4 0 50 -12 101 -25 52 -14 101 -25 108 -25 9 0 13 17 13 60
0 51 -4 64 -30 93 -43 50 -114 67 -187 46z m98 -59 c17 0 49 -40 49 -61 0 -15
-5 -19 -17 -15 -139 38 -135 36 -122 53 17 19 50 33 67 27 8 -2 18 -4 23 -4z"/>
<path d="M3393 4405 c-20 -9 -40 -29 -54 -57 -42 -83 -21 -158 59 -209 85 -54
180 -31 223 54 68 133 -84 275 -228 212z m142 -80 c29 -28 31 -54 10 -95 -27
-53 -74 -64 -119 -29 -57 45 -19 149 54 149 19 0 40 -9 55 -25z"/>
<path d="M3718 4218 c-25 -29 -82 -99 -128 -156 l-82 -103 23 -25 c12 -13 27
-24 33 -24 6 0 29 23 51 50 35 44 41 48 45 30 8 -33 58 -79 101 -91 78 -24
167 30 190 116 9 33 8 47 -8 84 -20 50 -71 91 -111 91 -16 0 -22 4 -19 14 3 7
-7 26 -22 40 l-28 27 -45 -53z m127 -103 c29 -28 32 -70 8 -105 -23 -34 -33
-40 -67 -40 -84 0 -104 113 -28 154 39 22 59 19 87 -9z"/>
<path d="M1172 4213 c-30 -26 -33 -35 -43 -113 -6 -46 -11 -86 -12 -87 -2 -1
-35 36 -75 83 -40 46 -76 84 -80 84 -4 -1 -20 -11 -35 -24 l-29 -23 133 -154
c73 -85 134 -156 136 -158 2 -3 17 9 34 25 l30 31 -23 29 c-15 19 -22 39 -20
58 3 26 6 28 35 22 95 -20 121 -18 157 13 40 34 45 30 -85 57 l-90 19 4 83 c1
45 1 82 -1 82 -2 0 -18 -12 -36 -27z"/>
<path d="M1526 4204 c-20 -19 -20 -34 0 -62 21 -30 59 -29 80 3 15 23 15 27 0
50 -19 29 -56 33 -80 9z"/>
<path d="M3962 3918 c-61 -46 -111 -87 -112 -93 0 -5 10 -22 23 -37 l22 -27
65 50 c36 27 75 52 88 56 33 8 70 -12 78 -41 8 -33 -16 -63 -95 -121 l-62 -46
21 -29 c12 -17 26 -30 31 -30 5 0 33 18 62 39 78 60 106 72 131 59 27 -14 45
-38 46 -59 0 -19 -58 -74 -120 -115 -22 -15 -40 -30 -40 -35 0 -4 11 -20 24
-35 l23 -28 66 47 c106 76 127 101 127 153 0 36 -6 51 -36 83 -19 22 -48 42
-63 46 -25 5 -29 11 -29 45 -1 49 -23 84 -69 105 -24 12 -32 20 -25 27 7 7 4
20 -11 39 -11 16 -24 29 -28 29 -3 0 -56 -37 -117 -82z"/>
<path d="M884 3931 c-61 -37 -102 -115 -90 -174 9 -45 48 -90 96 -112 37 -17
47 -17 88 -6 76 20 132 88 132 160 0 36 -10 44 -45 35 -21 -5 -25 -12 -25 -41
0 -77 -85 -110 -141 -54 -50 51 -32 112 44 140 21 8 27 17 27 41 0 26 -4 30
-27 30 -16 0 -42 -9 -59 -19z"/>
<path d="M642 3606 c-29 -31 -43 -58 -51 -95 -13 -62 -9 -71 30 -71 26 0 29 3
29 34 0 43 42 96 76 96 30 0 30 -1 -3 -68 -15 -31 -27 -70 -27 -88 0 -58 55
-93 113 -73 34 12 73 73 74 116 1 22 5 32 13 29 7 -3 21 10 32 28 l19 32 -33
22 c-19 12 -37 22 -40 22 -4 0 -29 14 -56 30 -34 21 -61 30 -92 30 -38 0 -48
-5 -84 -44z m186 -88 c29 -29 -2 -108 -43 -108 -30 0 -37 36 -14 80 22 41 36
49 57 28z"/>
<path d="M4262 3450 c-32 -20 -71 -86 -72 -122 0 -34 32 -114 58 -140 32 -35
55 -36 70 -3 10 21 9 26 -7 35 -10 5 -26 28 -35 51 -14 34 -15 47 -5 71 6 15
15 28 19 28 8 0 90 -174 90 -190 0 -32 83 19 104 64 9 19 16 49 16 67 0 47
-37 118 -74 140 -42 26 -121 25 -164 -1z m134 -58 c18 -12 44 -56 44 -73 0 -9
-9 -27 -19 -40 l-19 -24 -31 67 c-17 36 -31 69 -31 72 0 8 43 7 56 -2z"/>
<path d="M515 3344 l-14 -35 -32 16 c-36 19 -34 20 -53 -26 l-15 -36 34 -16
c25 -12 33 -21 28 -33 -4 -11 1 -22 12 -30 26 -19 40 -17 51 5 9 19 11 19 69
-6 111 -47 175 -27 195 62 11 47 7 55 -29 55 -24 0 -30 -5 -34 -30 -8 -35 -25
-38 -83 -14 -22 9 -49 20 -61 25 -21 8 -22 10 -8 43 14 34 14 34 -15 45 -29 9
-31 8 -45 -25z"/>
<path d="M327 3093 c-34 -73 -42 -123 -28 -166 18 -54 55 -82 107 -82 53 0 69
15 121 110 43 79 74 96 94 51 14 -30 -11 -118 -44 -153 -20 -22 -20 -23 -2
-43 32 -35 51 -25 84 43 39 79 48 141 28 189 -19 45 -55 70 -103 70 -44 0 -71
-24 -109 -95 -36 -66 -54 -87 -76 -87 -46 0 -47 75 -3 143 l25 38 -23 19 c-13
11 -28 19 -34 20 -6 0 -22 -26 -37 -57z"/>
<path d="M4404 3117 l-120 -32 7 -33 c4 -18 9 -36 12 -39 4 -3 35 2 71 11 82
20 130 20 150 0 18 -18 22 -89 5 -100 -6 -3 -50 -16 -97 -28 l-87 -22 2 -39
c2 -21 4 -40 7 -42 2 -2 52 10 112 26 88 24 113 35 131 58 37 45 29 127 -16
172 -17 17 -18 22 -6 29 11 6 14 17 9 40 -8 41 -20 40 -180 -1z"/>
<path d="M4582 2768 c3 -21 -2 -23 -84 -33 -59 -7 -93 -16 -107 -29 -33 -30
-40 -103 -13 -144 7 -10 14 -11 35 -1 21 10 25 17 21 38 -8 37 10 49 88 57
l67 7 6 -37 c6 -32 11 -36 37 -36 28 0 29 2 26 38 -3 36 -2 37 35 40 30 3 37
7 33 18 -3 9 -6 28 -6 43 0 25 -3 27 -35 23 -30 -4 -35 -1 -35 17 0 17 -6 21
-36 21 -31 0 -35 -3 -32 -22z"/>
<path d="M220 2561 l0 -38 201 -8 c110 -4 202 -5 205 -2 3 2 7 20 10 39 l6 35
-108 6 c-59 4 -154 7 -211 7 l-103 0 0 -39z"/>
<path d="M398 2426 c-91 -6 -170 -14 -173 -18 -4 -4 -5 -22 -1 -40 l6 -33 205
9 205 9 0 44 0 43 -37 -2 c-21 -1 -113 -6 -205 -12z"/>
<path d="M4366 2343 c-3 -16 -10 -66 -16 -113 -6 -47 -13 -102 -16 -122 -5
-36 -5 -37 28 -40 l33 -3 15 105 15 105 40 -3 c22 -2 44 -7 48 -11 4 -4 2 -46
-6 -94 l-13 -85 30 -5 c17 -3 32 -3 34 -2 2 2 9 40 16 84 7 45 16 84 19 87 3
3 22 2 42 -2 l37 -7 -6 -46 c-3 -25 -9 -72 -12 -104 l-7 -58 33 3 34 3 18 120
c26 178 33 160 -74 175 -51 6 -135 18 -185 26 -51 8 -95 14 -97 14 -2 0 -7
-12 -10 -27z"/>
<path d="M476 2265 c-65 -13 -121 -26 -123 -29 -11 -10 8 -76 21 -76 8 0 48 7
89 16 61 12 81 13 99 3 31 -16 38 -28 38 -66 0 -41 -27 -56 -133 -74 l-77 -13
6 -35 c4 -20 8 -38 10 -40 6 -7 168 21 201 35 70 28 93 124 45 192 -15 20 -18
32 -11 39 6 6 9 23 7 39 -4 38 -22 39 -172 9z"/>
<path d="M4309 2012 c-5 -15 -11 -32 -14 -39 -2 -7 27 -22 73 -39 115 -40 149
-88 98 -139 -21 -21 -28 -22 -65 -14 -23 5 -65 18 -94 29 -28 11 -54 20 -57
20 -4 0 -12 -16 -19 -36 -11 -30 -11 -38 0 -45 27 -17 177 -59 212 -59 67 0
115 69 104 150 -4 32 -2 37 12 33 13 -3 20 5 28 31 6 20 8 38 5 40 -4 2 -67
24 -140 49 l-133 46 -10 -27z"/>
<path d="M545 1888 c-11 -6 -21 -12 -23 -14 -4 -3 20 -73 43 -127 l16 -38 -47
-20 c-25 -12 -49 -17 -53 -12 -4 4 -23 47 -41 94 l-34 86 -32 -10 c-23 -7 -31
-14 -27 -26 10 -30 95 -246 99 -253 3 -4 19 -1 37 7 18 8 75 31 127 50 52 20
118 46 146 57 l52 19 -11 36 c-6 19 -17 37 -23 40 -7 2 -34 -5 -60 -16 -25
-12 -52 -21 -60 -21 -7 0 -26 35 -42 77 -17 43 -34 78 -39 80 -4 1 -17 -3 -28
-9z"/>
<path d="M4092 1715 c-44 -39 -92 -127 -92 -172 0 -33 29 -84 62 -107 24 -18
96 -61 189 -113 l55 -31 20 36 c14 26 16 36 6 40 -20 6 -14 16 19 31 21 9 38
28 51 59 47 105 -15 205 -128 205 -75 0 -128 -50 -142 -135 l-7 -43 -23 23
c-40 40 -23 115 37 160 30 22 31 23 16 52 -9 17 -17 30 -18 30 -2 0 -22 -16
-45 -35z m216 -145 c27 -17 32 -25 32 -59 0 -32 -6 -44 -31 -65 -37 -31 -58
-33 -93 -5 -44 35 -29 116 28 139 29 12 27 12 64 -10z"/>
<path d="M818 1462 c-43 -31 -109 -79 -148 -107 -40 -27 -76 -55 -81 -62 -11
-13 14 -73 31 -73 5 0 30 16 56 35 53 40 64 43 64 14 0 -11 5 -30 11 -42 49
-95 161 -111 243 -34 76 72 52 202 -43 239 -18 6 -21 12 -13 20 8 8 5 19 -11
39 -11 16 -23 29 -26 29 -3 0 -41 -26 -83 -58z m116 -93 c45 -35 33 -105 -24
-134 -41 -21 -58 -19 -91 14 -38 38 -37 65 5 107 39 39 72 43 110 13z"/>
<path d="M3979 1358 l-23 -32 28 -20 c16 -12 67 -51 114 -88 47 -38 89 -68 93
-68 4 0 16 14 27 31 l20 32 -32 27 c-44 38 -193 150 -199 150 -3 0 -16 -14
-28 -32z"/>
<path d="M3891 1249 l-23 -30 23 -25 c13 -14 41 -44 62 -65 50 -53 49 -111 -3
-139 -28 -15 -64 6 -128 74 l-53 56 -30 -21 c-16 -11 -29 -25 -29 -30 0 -11
98 -111 144 -147 19 -14 42 -22 69 -22 32 0 46 7 78 39 22 21 39 47 39 58 0
26 10 35 25 23 8 -7 20 -1 39 19 l27 28 -104 106 c-57 59 -105 107 -108 106
-2 0 -15 -14 -28 -30z"/>
<path d="M1090 1180 c0 -23 5 -31 25 -36 49 -12 96 -100 68 -128 -4 -3 -42 28
-84 70 -84 84 -97 87 -125 32 -35 -67 -14 -155 47 -201 34 -24 106 -33 152
-18 74 25 116 123 82 195 -25 51 -100 116 -136 116 -25 0 -29 -4 -29 -30z m7
-159 c28 -27 48 -52 45 -55 -3 -3 -22 -6 -42 -6 -52 0 -75 30 -71 93 2 27 14
21 68 -32z"/>
<path d="M4257 1152 c-23 -25 -21 -45 4 -68 19 -17 23 -17 47 -3 47 26 38 89
-13 89 -12 0 -29 -8 -38 -18z"/>
<path d="M1289 919 c-41 -55 -96 -129 -123 -165 -46 -62 -47 -66 -30 -80 48
-37 50 -37 95 26 24 33 77 104 116 158 40 53 73 102 73 108 0 11 -23 34 -46
47 -7 4 -41 -34 -85 -94z"/>
<path d="M3575 971 c-47 -21 -107 -86 -103 -109 5 -29 53 -27 72 3 10 15 33
33 52 41 34 14 84 10 84 -7 0 -5 -30 -29 -67 -54 -38 -24 -78 -53 -91 -63
l-23 -18 21 -27 c47 -60 127 -74 193 -34 56 34 77 71 77 139 0 47 -5 62 -27
89 -49 58 -117 73 -188 40z m145 -149 c0 -56 -79 -97 -116 -60 -13 13 -8 19
43 51 32 20 61 37 65 37 5 0 8 -13 8 -28z"/>
<path d="M1386 769 c-54 -89 -101 -169 -103 -178 -6 -23 56 -59 68 -40 8 12
102 164 181 294 l27 44 -33 21 c-18 11 -35 20 -37 20 -2 0 -48 -73 -103 -161z"/>
<path d="M1555 729 c-33 -67 -60 -126 -60 -131 0 -5 14 -18 32 -29 l32 -20 65
130 c36 72 66 133 66 136 0 6 -56 35 -67 35 -4 0 -35 -55 -68 -121z"/>
<path d="M3270 804 c-38 -17 -77 -49 -91 -76 -7 -13 -3 -20 18 -31 25 -14 29
-13 56 14 16 16 40 32 53 35 24 6 84 -12 84 -25 0 -3 -45 -26 -100 -51 -55
-24 -100 -48 -100 -53 0 -44 81 -107 138 -107 48 0 126 46 145 85 64 135 -67
270 -203 209z m141 -177 c-6 -14 -19 -31 -30 -36 -28 -16 -77 -13 -91 4 -10
12 -3 19 51 45 68 32 86 29 70 -13z"/>
<path d="M1724 758 c8 -24 23 -70 35 -102 12 -33 20 -60 19 -61 -2 -2 -36 -19
-75 -39 -40 -20 -73 -38 -73 -40 0 -2 19 -11 43 -19 41 -14 45 -13 102 13 111
50 107 54 70 -52 -18 -51 -36 -100 -40 -109 -5 -13 2 -20 31 -29 33 -11 39
-11 51 6 7 10 13 23 13 29 0 7 25 81 55 166 30 85 55 159 55 165 0 6 -16 16
-36 22 -35 10 -36 10 -50 -23 -13 -32 -39 -55 -62 -55 -5 0 -20 32 -33 70 -22
68 -24 71 -63 81 -23 6 -44 13 -48 15 -4 3 -1 -15 6 -38z"/>
<path d="M3060 718 c-19 -6 -36 -11 -37 -11 -1 -1 5 -29 14 -62 31 -124 27
-156 -24 -176 -22 -8 -25 -14 -19 -41 3 -17 8 -33 10 -36 6 -6 48 17 74 41 20
19 22 19 22 3 0 -13 5 -16 16 -12 9 3 27 9 40 12 17 4 23 12 20 23 -3 9 -21
72 -41 141 -20 68 -37 125 -38 126 -1 0 -18 -3 -37 -8z"/>
<path d="M2106 660 c-61 -19 -95 -83 -74 -141 8 -24 28 -39 100 -75 82 -41 89
-47 86 -72 -3 -25 -7 -27 -50 -30 -33 -2 -59 3 -88 18 -23 12 -43 20 -44 18
-35 -47 -36 -50 -13 -68 51 -38 161 -51 222 -26 34 15 65 59 65 95 0 48 -24
73 -113 117 -75 38 -88 48 -85 67 7 47 95 47 164 1 l38 -26 18 22 c24 29 23
35 -8 59 -45 36 -164 58 -218 41z"/>
<path d="M2676 634 c-23 -23 -20 -61 7 -78 30 -20 66 -10 78 22 20 52 -46 96
-85 56z"/>
<path d="M1453 529 c-44 -16 -17 -89 33 -89 26 0 44 19 44 46 0 35 -40 57 -77
43z"/>
</g>
</svg>
